<svg xmlns="http://www.w3.org/2000/svg" viewBox="0 0 513.2 443"><defs><style>.cls-1{fill:none;stroke:#fff;stroke-miterlimit:10;stroke-width:3px;}.cls-2{font-size:72.9px;fill:#fff;font-family:SimHei;}</style></defs><title>资源 8</title><g id="图层_2" data-name="图层 2"><g id="主题"><polygon class="cls-1" points="71.44 1.5 218.11 1.5 194.88 148.17 48.22 148.17 71.44 1.5"/><text class="cls-2" transform="matrix(0.99, 0, -0.16, 0.99, 257.79, 98.6)">3</text><polygon class="cls-1" points="218.11 1.5 364.78 1.5 341.55 148.17 194.88 148.17 218.11 1.5"/><text class="cls-2" transform="matrix(0.99, 0, -0.16, 0.99, 234.79, 245.6)">6</text><polygon class="cls-1" points="195.11 148.5 341.78 148.5 318.55 295.17 171.88 295.17 195.11 148.5"/><text class="cls-2" transform="matrix(0.99, 0, -0.16, 0.99, 380.79, 245.6)">7</text><polygon class="cls-1" points="341.11 148.5 487.78 148.5 464.55 295.17 317.88 295.17 341.11 148.5"/><text class="cls-2" transform="matrix(0.99, 0, -0.16, 0.99, 357.79, 391.6)">9</text><polygon class="cls-1" points="318.11 294.5 464.78 294.5 441.55 441.17 294.88 441.17 318.11 294.5"/><polygon class="cls-1" points="364.78 1.5 511.44 1.5 488.22 148.17 341.55 148.17 364.78 1.5"/><polygon class="cls-1" points="48.22 148.17 194.88 148.17 171.65 294.83 24.99 294.83 48.22 148.17"/><polygon class="cls-1" points="194.88 148.17 341.55 148.17 318.32 294.83 171.65 294.83 194.88 148.17"/><polygon class="cls-1" points="24.99 294.83 171.65 294.83 148.42 441.5 1.76 441.5 24.99 294.83"/><polygon class="cls-1" points="318.32 294.83 464.99 294.83 441.76 441.5 295.09 441.5 318.32 294.83"/><polygon class="cls-1" points="172.32 294.83 318.99 294.83 295.76 441.5 149.09 441.5 172.32 294.83"/></g></g></svg>