<svg xmlns="http://www.w3.org/2000/svg" viewBox="0 0 351 723"><defs><style>.cls-1{fill:none;}.cls-1,.cls-2,.cls-4,.cls-5{stroke:#fff;stroke-miterlimit:10;}.cls-1,.cls-2{stroke-width:3px;}.cls-2,.cls-3,.cls-4,.cls-5{fill:#fff;}.cls-2{opacity:0.24;}.cls-3{font-size:24px;}.cls-3,.cls-4,.cls-5{font-family:SimHei;}.cls-4{font-size:56px;stroke-width:4px;}.cls-5{font-size:18px;}</style></defs><title>资源 14</title><g id="图层_2" data-name="图层 2"><g id="功能"><rect class="cls-1" x="1.5" y="1.5" width="348" height="100" rx="8.23"/><rect class="cls-1" x="1.5" y="125.5" width="100" height="100" rx="8.23"/><rect class="cls-1" x="1.5" y="249.5" width="100" height="100" rx="8.23"/><rect class="cls-1" x="1.5" y="373.5" width="100" height="100" rx="8.23"/><rect class="cls-1" x="1.5" y="497.5" width="224" height="100" rx="8.23"/><rect class="cls-1" x="1.5" y="621.5" width="224" height="100" rx="8.23"/><rect class="cls-1" x="125.5" y="125.5" width="100" height="100" rx="8.23"/><rect class="cls-1" x="125.5" y="249.5" width="100" height="100" rx="8.23"/><rect class="cls-1" x="125.5" y="373.5" width="100" height="100" rx="8.23"/><rect class="cls-1" x="249.5" y="125.5" width="100" height="100" rx="8.23"/><rect class="cls-2" x="249.5" y="249.5" width="100" height="100" rx="8.23"/><rect class="cls-1" x="249.5" y="373.5" width="100" height="100" rx="8.23"/><rect class="cls-1" x="249.5" y="497.5" width="100" height="100" rx="8.23"/><rect class="cls-1" x="249.5" y="621.5" width="100" height="100" rx="8.23"/><text class="cls-3" transform="translate(127.33 57.18)">新的一局</text><text class="cls-3" transform="translate(89.58 556.18)">笔记</text><text class="cls-3" transform="translate(89.58 680.18)">回退</text><text class="cls-3" transform="translate(274.58 556.18)">清除</text><text class="cls-3" transform="translate(274.58 680.18)">分享</text><text class="cls-4" transform="translate(37.08 195.68)">1</text><text class="cls-4" transform="translate(161.08 195.68)">2</text><text class="cls-4" transform="translate(285.08 195.68)">3</text><text class="cls-4" transform="translate(37.08 319.68)">4</text><text class="cls-4" transform="translate(161.08 319.68)">5</text><text class="cls-4" transform="translate(285.08 319.68)">6</text><text class="cls-4" transform="translate(37.08 443.68)">7</text><text class="cls-4" transform="translate(161.08 443.68)">8</text><text class="cls-4" transform="translate(285.08 443.68)">9</text><text class="cls-5" transform="translate(77.08 149.02)">8</text><text class="cls-5" transform="translate(201.08 149.02)">9</text><text class="cls-5" transform="translate(325.08 149.02)">9</text><text class="cls-5" transform="translate(77.08 273.02)">9</text><text class="cls-5" transform="translate(201.08 273.02)">7</text><text class="cls-5" transform="translate(325.08 273.02)">9</text><text class="cls-5" transform="translate(77.08 397.02)">9</text><text class="cls-5" transform="translate(201.08 397.02)">9</text><text class="cls-5" transform="translate(325.08 397.02)">9</text></g></g></svg>